<svg xmlns="http://www.w3.org/2000/svg" width="18" height="23" viewBox="0 0 18 23">
    <g fill="none" fill-rule="evenodd" transform="translate(-30 -555)">
<!--        <path fill="#F9F9F9" d="M0 0H375V1311H0z"/>-->
        <rect width="355" height="189" x="10" y="437" fill="#FFF" rx="6"/>
        <g fill="#999" fill-rule="nonzero">
            <path d="M8.625 0C3.845 0 0 4.025 0 9.092c0 4.313 5.93 11.392 7.763 13.513.18.287.575.395.862.395.395 0 .683-.18.863-.395 1.832-2.085 7.762-9.272 7.762-13.513C17.25 4.025 13.405 0 8.625 0zm0 20.7c-3.27-3.845-6.72-8.912-6.72-11.608 0-4.025 2.982-7.187 6.72-7.187 3.738 0 6.72 3.27 6.72 7.187 0 2.695-3.45 7.763-6.72 11.608z" transform="translate(30 555)"/>
            <path d="M8.625 4.78c-2.12 0-3.845 1.725-3.845 3.845s1.725 3.845 3.845 3.845 3.845-1.725 3.845-3.845S10.745 4.78 8.625 4.78zm0 5.75c-1.042 0-1.905-.863-1.905-1.905S7.583 6.72 8.625 6.72s1.905.863 1.905 1.905-.863 1.905-1.905 1.905z" transform="translate(30 555)"/>
        </g>
    </g>
</svg>
